<?xml version="1.0" encoding="UTF-8" standalone="no"?>
<svg width="16px" height="16px" viewBox="0 0 16 16" version="1.1" xmlns="http://www.w3.org/2000/svg" xmlns:xlink="http://www.w3.org/1999/xlink">
    <!-- Generator: Sketch 3.8.3 (29802) - http://www.bohemiancoding.com/sketch -->
    <title>Combined Shape</title>
    <desc>Created with Sketch.</desc>
    <defs></defs>
    <g id="Page-1" stroke="none" stroke-width="1" fill="none" fill-rule="evenodd">
        <path d="M2.0869,11.1572 C0.9819,11.1572 0.0869,12.0522 0.0869,13.1572 C0.0869,14.2622 0.9819,15.1572 2.0869,15.1572 C3.1919,15.1572 4.0869,14.2622 4.0869,13.1572 C4.0869,12.0522 3.1919,11.1572 2.0869,11.1572 Z M0,5.6572 L0,8.6572 C3.584,8.6572 6.5,11.5732 6.5,15.1572 L9.5,15.1572 C9.5,9.9192 5.238,5.6572 0,5.6572 Z M0,0 L0,3 C6.772,3 12.282,8.157 12.282,15.157 L15.282,15.157 C15.282,7.157 8.427,0 0,0 Z" id="Combined-Shape" fill="#000000"></path>
    </g>
</svg>